<?xml version="1.0" encoding="UTF-8"?>
<svg id="Calque_1" data-name="Calque 1" xmlns="http://www.w3.org/2000/svg" viewBox="0 0 833.69 182.14">
  <defs>
    <style>
      .cls-1 {
        stroke: #091e3f;
        stroke-miterlimit: 10;
        stroke-width: 1.5px;
      }

      .cls-2, .cls-3 {
        stroke-width: 0px;
      }

      .cls-3 {
        fill: #009a6f;
      }
    </style>
  </defs>
  <g>
    <g>
      <path class="cls-2" d="m483.56,39.2l-.34.34c-1.17-1.17-2.6-1.77-4.23-1.77s-3.05.59-4.23,1.77c-1.17,1.17-1.77,2.6-1.77,4.23s.6,3.05,1.77,4.23c1.17,1.17,2.6,1.77,4.23,1.77s3.05-.59,4.23-1.77c1.17-1.17,1.77-2.6,1.77-4.23s-.59-3.05-1.77-4.23l.34-.34h0Z"/>
      <path class="cls-2" d="m282.07,44.58c-.27-.63-.78-1.24-1.49-1.77-2.99-2.41-5.97-4.16-8.88-5.21-2.92-1.05-6.41-1.58-10.37-1.58-5.6,0-10.79,1.42-15.43,4.22-4.63,2.8-8.33,6.64-10.99,11.43-2.66,4.78-4.02,10.12-4.02,15.86s1.35,11.16,4.02,15.97c2.67,4.81,6.37,8.66,11,11.43,4.64,2.78,9.82,4.18,15.42,4.18,7.17,0,13.71-2.34,19.42-6.96.96-.96,1.47-2.14,1.47-3.47s-.41-2.49-1.21-3.36c-1.57-1.69-4.01-1.78-6.21-.22-4.28,3.21-8.82,4.84-13.47,4.84-3.77,0-7.29-1.01-10.45-2.99-3.18-1.99-5.74-4.72-7.61-8.13-1.87-3.4-2.82-7.21-2.82-11.3s.95-7.84,2.82-11.27c1.87-3.43,4.43-6.17,7.61-8.16h0c3.17-1.98,6.68-2.99,10.45-2.99,3.02,0,5.5.38,7.36,1.12,1.88.75,3.85,2,5.87,3.72,1.98,1.61,4.64,1.6,6.46-.04.93-.84,1.43-1.95,1.43-3.23,0-.78-.13-1.49-.38-2.09Z"/>
      <path class="cls-2" d="m327.26,54.58c-1.38,0-2.54.47-3.46,1.39-.45.45-.79.97-1.03,1.6l-.21.54-.49-.31c-.12-.08-.23-.16-.35-.24-.14-.1-.28-.2-.42-.28-3.32-1.94-7.06-2.92-11.14-2.92s-7.84.98-11.21,2.91c-3.37,1.94-6.05,4.63-7.95,7.99-1.91,3.36-2.87,7.16-2.87,11.28s.9,7.9,2.67,11.25c1.78,3.37,4.26,6.05,7.37,7.97,3.12,1.92,6.64,2.89,10.47,2.89,3.08,0,6-.65,8.66-1.93,1.59-.76,3.06-1.72,4.37-2.85l.69-.59.1.91c.12,1.11.57,2.07,1.35,2.85.92.92,2.09,1.39,3.46,1.39s2.54-.47,3.46-1.39c.92-.92,1.39-2.08,1.39-3.46v-34.14c0-1.38-.47-2.54-1.39-3.46-.92-.92-2.09-1.39-3.46-1.39Zm-6.19,28.8c-1.1,2.03-2.57,3.58-4.5,4.75-1.9,1.15-4.06,1.73-6.42,1.73s-4.49-.57-6.42-1.73c-1.91-1.16-3.44-2.76-4.55-4.76-1.11-2.01-1.68-4.31-1.68-6.83s.56-4.84,1.68-6.87c1.11-2.03,2.64-3.64,4.54-4.8,1.93-1.17,4.03-1.73,6.42-1.73s4.52.58,6.42,1.73c1.9,1.15,3.42,2.76,4.5,4.79,1.09,2.04,1.64,4.36,1.64,6.88s-.55,4.83-1.64,6.84Z"/>
      <path class="cls-2" d="m397.51,90.57c1.24,2.38,2.99,4.29,5.19,5.67,2.21,1.39,4.68,2.09,7.34,2.09h1.37c1.55,0,2.85-.44,3.87-1.3,1.04-.89,1.6-2.09,1.6-3.48s-.39-2.47-1.17-3.35l-.03-.03c-.81-.91-1.86-1.39-3.04-1.39h-2.6c-1.34,0-2.45-.56-3.39-1.71-.99-1.21-1.46-2.69-1.46-4.51v-17.91h5.54c1.31,0,2.4-.39,3.24-1.17.85-.79,1.3-1.82,1.3-2.99,0-1.27-.45-2.36-1.3-3.14-.84-.78-1.93-1.17-3.24-1.17h-5.54v-10.04c0-1.38-.45-2.53-1.35-3.43-.89-.9-2.05-1.35-3.42-1.35s-2.53.45-3.42,1.35c-.9.9-1.35,2.05-1.35,3.43v10.04h-2.56c-1.31,0-2.41.39-3.24,1.17-.85.79-1.3,1.87-1.3,3.15,0,1.17.45,2.21,1.3,2.99.84.78,1.93,1.17,3.25,1.17h2.56v17.91c0,2.95.63,5.64,1.87,8Z"/>
      <path class="cls-2" d="m459.37,54.58c-1.38,0-2.54.47-3.46,1.39-.45.45-.79.97-1.03,1.6l-.21.54-.49-.31c-.12-.08-.23-.16-.35-.24-.14-.1-.28-.2-.42-.28-3.32-1.94-7.06-2.92-11.14-2.92s-7.84.98-11.21,2.91c-3.37,1.94-6.05,4.63-7.95,7.99-1.91,3.36-2.87,7.16-2.87,11.28s.9,7.9,2.67,11.25c1.78,3.37,4.26,6.05,7.37,7.97,3.12,1.92,6.64,2.89,10.47,2.89,3.08,0,6-.65,8.66-1.93,1.59-.76,3.06-1.72,4.37-2.85l.69-.59.1.91c.12,1.11.57,2.07,1.35,2.85.92.92,2.09,1.39,3.46,1.39s2.54-.47,3.46-1.39c.92-.92,1.39-2.08,1.39-3.46v-34.14c0-1.38-.47-2.54-1.39-3.46-.92-.92-2.09-1.39-3.46-1.39Zm-6.19,28.8c-1.1,2.03-2.57,3.58-4.5,4.75-1.9,1.15-4.06,1.73-6.42,1.73s-4.49-.57-6.42-1.73c-1.91-1.16-3.44-2.76-4.55-4.76-1.11-2.01-1.68-4.31-1.68-6.83s.56-4.84,1.68-6.87c1.11-2.03,2.64-3.64,4.54-4.8,1.93-1.17,4.03-1.73,6.42-1.73s4.52.58,6.42,1.73c1.9,1.15,3.42,2.76,4.5,4.79,1.09,2.04,1.64,4.36,1.64,6.88s-.55,4.83-1.64,6.84Z"/>
      <path class="cls-2" d="m474.15,93.49c0,1.38.47,2.54,1.39,3.46.92.92,2.09,1.39,3.46,1.39s2.62-.47,3.51-1.4c.89-.92,1.34-2.08,1.34-3.45v-33.99c0-1.43-.45-2.6-1.35-3.5-.89-.9-2.07-1.35-3.5-1.35s-2.53.45-3.45,1.34c-.93.9-1.4,2.08-1.4,3.51v33.99Z"/>
      <path class="cls-2" d="m528.15,97.03c.92.92,2.08,1.39,3.46,1.39s2.54-.47,3.46-1.39c.92-.92,1.39-2.08,1.39-3.46v-18.79c0-4.26-.84-7.98-2.48-11.03-1.66-3.08-4-5.46-6.95-7.07-2.93-1.6-6.27-2.41-9.93-2.41-2.65,0-5.19.47-7.53,1.4-1.47.58-2.83,1.33-4.06,2.23l-.52.38-.21-.6c-.22-.63-.58-1.19-1.06-1.67-.9-.89-2.07-1.35-3.5-1.35s-2.53.45-3.45,1.34c-.93.9-1.4,2.08-1.4,3.51v34.06c0,1.38.47,2.55,1.39,3.46.92.92,2.09,1.39,3.46,1.39s2.61-.47,3.51-1.4c.89-.92,1.34-2.08,1.34-3.45v-21.54c0-1.65.43-3.1,1.33-4.43.89-1.33,2.16-2.4,3.75-3.19,1.62-.8,3.44-1.2,5.42-1.2,3.44,0,6.11.95,8.16,2.91,2.01,1.92,3.03,4.83,3.03,8.67v18.79c0,1.38.47,2.55,1.39,3.46Z"/>
      <path class="cls-2" d="m374.86,57.26c-3.37-1.93-7.14-2.91-11.21-2.91s-7.82.98-11.14,2.92c-.15.09-.29.19-.44.29-.12.08-.23.16-.35.24l-.49.31-.21-.54c-.23-.56-.56-1.07-.98-1.49-.9-.9-2.08-1.35-3.5-1.35s-2.53.45-3.45,1.34c-.93.9-1.4,2.08-1.4,3.51v51.78c0,1.43.47,2.61,1.4,3.51.92.89,2.08,1.34,3.45,1.34s2.6-.45,3.5-1.35c.89-.9,1.35-2.07,1.35-3.5v-18.14l.79.68c1.3,1.12,2.76,2.07,4.33,2.82,2.66,1.28,5.58,1.93,8.66,1.93,3.83,0,7.35-.97,10.47-2.89,3.11-1.92,5.59-4.59,7.37-7.97,1.77-3.36,2.67-7.14,2.67-11.25s-.97-7.92-2.87-11.28c-1.91-3.37-4.58-6.05-7.95-7.99Zm-.24,26.11c-1.11,2-2.64,3.61-4.55,4.76-1.9,1.15-4.06,1.73-6.42,1.73s-4.49-.57-6.42-1.73c-1.91-1.15-3.42-2.75-4.5-4.75-1.09-2.01-1.64-4.31-1.64-6.84s.55-4.84,1.64-6.88c1.09-2.03,2.6-3.64,4.5-4.79,1.93-1.17,4.03-1.73,6.42-1.73s4.52.58,6.42,1.73c1.91,1.15,3.44,2.77,4.54,4.8,1.11,2.04,1.68,4.35,1.68,6.87s-.56,4.82-1.68,6.83Z"/>
    </g>
    <g>
      <path class="cls-2" d="m673.9,54.58c-1.38,0-2.54.47-3.46,1.39-.45.45-.79.97-1.03,1.6l-.21.54-.49-.32c-.12-.07-.23-.15-.34-.23-.14-.1-.28-.2-.43-.29-3.32-1.94-7.06-2.92-11.14-2.92s-7.84.98-11.21,2.91c-3.37,1.94-6.05,4.63-7.95,7.99-1.91,3.36-2.87,7.16-2.87,11.28s.9,7.9,2.67,11.25c1.78,3.37,4.26,6.05,7.37,7.97,3.12,1.92,6.64,2.89,10.47,2.89,3.08,0,6-.65,8.66-1.93,1.59-.76,3.06-1.72,4.37-2.85l.69-.59.1.91c.12,1.12.57,2.07,1.35,2.85.92.92,2.09,1.39,3.46,1.39s2.54-.47,3.46-1.39c.92-.92,1.39-2.08,1.39-3.46v-34.14c0-1.38-.47-2.54-1.39-3.46-.92-.92-2.08-1.39-3.46-1.39Zm-6.19,28.8c-1.1,2.03-2.57,3.58-4.5,4.75-1.9,1.15-4.06,1.73-6.42,1.73s-4.49-.57-6.42-1.73c-1.91-1.16-3.44-2.76-4.55-4.76-1.11-2.01-1.67-4.31-1.67-6.83s.56-4.84,1.68-6.87c1.11-2.03,2.64-3.64,4.54-4.8,1.93-1.17,4.03-1.73,6.42-1.73s4.52.58,6.42,1.73c1.9,1.15,3.42,2.76,4.5,4.79,1.09,2.04,1.64,4.36,1.64,6.88s-.55,4.83-1.64,6.84Z"/>
      <path class="cls-2" d="m770.61,64.73c-1.6-3.26-3.93-5.83-6.93-7.65-2.99-1.81-6.57-2.74-10.65-2.74s-7.87.95-11.13,2.84c-3.27,1.89-5.86,4.56-7.69,7.93-1.83,3.36-2.75,7.2-2.75,11.42s.98,8.06,2.92,11.4c1.94,3.35,4.67,6,8.12,7.88,3.44,1.88,7.37,2.83,11.68,2.83,2.43,0,5.02-.45,7.67-1.35,2.66-.89,4.92-2.07,6.71-3.49,1.06-.79,1.61-1.85,1.61-3.06,0-.87-.29-2.14-1.67-3.29-.76-.68-1.74-1.03-2.95-1.03s-2.22.35-3.09,1.03c-.98.75-2.27,1.4-3.82,1.92-1.55.52-3.05.79-4.47.79-3.68,0-6.69-1-9.21-3.07-2.07-1.69-3.43-3.77-4.15-6.33l-.17-.61h27.88c1.27,0,2.34-.41,3.18-1.22l.05-.05c.81-.81,1.23-1.86,1.23-3.04,0-4.15-.8-7.89-2.39-11.11Zm-29.86,7.41l.18-.61c.7-2.41,1.91-4.33,3.68-5.89,2.16-1.9,4.91-2.82,8.42-2.82,3.13,0,5.59.91,7.51,2.78,1.57,1.53,2.66,3.53,3.23,5.95l.14.59h-23.15Z"/>
      <path class="cls-2" d="m784.54,90.57c1.24,2.38,2.99,4.29,5.19,5.67,2.21,1.39,4.68,2.09,7.34,2.09h1.37c1.55,0,2.85-.44,3.86-1.3,1.05-.89,1.6-2.09,1.6-3.48s-.4-2.49-1.2-3.39c-.83-.91-1.87-1.39-3.04-1.39h-2.6c-1.34,0-2.44-.56-3.38-1.71-.99-1.21-1.47-2.69-1.47-4.51v-17.91h5.54c1.31,0,2.4-.39,3.24-1.17.85-.79,1.3-1.82,1.3-2.99,0-1.27-.45-2.36-1.3-3.14-.84-.78-1.93-1.17-3.25-1.17h-5.54v-10.04c0-1.38-.45-2.53-1.35-3.43-.9-.9-2.05-1.35-3.42-1.35s-2.53.45-3.43,1.35-1.35,2.05-1.35,3.43v10.04h-2.56c-1.31,0-2.41.39-3.24,1.17-.85.79-1.3,1.87-1.3,3.15,0,1.17.45,2.21,1.3,2.99.84.78,1.93,1.17,3.25,1.17h2.56v17.91c0,2.95.63,5.64,1.86,8Z"/>
      <path class="cls-2" d="m599.73,54.05l10.49,40.54c.35,1.05.97,1.96,1.82,2.66.88.73,1.91,1.1,3.05,1.1s2.16-.37,3.02-1.11c.82-.7,1.44-1.62,1.87-2.81l17.37-57.65h-9.56l-.94,3.29h-.01c-.18.69-1.53,5.37-11.25,39.27l-.47,1.65-10.79-40.12c-.26-1.05-.88-1.9-1.79-2.49-1.8-1.16-4.17-1.11-5.88.11-.89.64-1.48,1.46-1.74,2.44l-10.64,39.76-12.63-43.9h-9.67l17.38,57.77c.36,1.15.98,2.07,1.84,2.74,1.8,1.43,4.35,1.4,6.06-.06.82-.7,1.44-1.64,1.88-2.86l10.59-40.33Z"/>
      <path class="cls-2" d="m705,90.18c-.81-.91-1.92-1.39-3.19-1.39h-1.91c-.77,0-1.39-.43-1.93-1.36-.62-1.07-.94-2.47-.94-4.18v-46.47h-9.55v46.47c0,2.82.52,5.41,1.53,7.68,1.03,2.32,2.52,4.15,4.42,5.44,1.94,1.32,4.1,1.96,6.61,1.96,1.73,0,3.18-.42,4.31-1.25,1.2-.89,1.84-2.11,1.84-3.52s-.4-2.49-1.2-3.39Z"/>
      <path class="cls-2" d="m727.97,90.18c-.81-.91-1.92-1.39-3.19-1.39h-1.91c-.77,0-1.38-.43-1.92-1.36-.62-1.07-.94-2.47-.94-4.18v-46.47h-9.55v46.47c0,2.82.52,5.41,1.54,7.68,1.03,2.32,2.52,4.15,4.42,5.44,1.94,1.32,4.1,1.96,6.61,1.96,1.73,0,3.18-.42,4.31-1.25,1.2-.89,1.84-2.11,1.84-3.52s-.4-2.49-1.2-3.39Z"/>
    </g>
  </g>
  <g>
    <path class="cls-2" d="m203.59,74.4l-69.84,61.79-21.92-19.27-21.54,19.27L20.05,74.4h39.08c1.09,3.71,2.58,7.26,4.39,10.6.86,1.54,1.78,3.04,2.75,4.5.99,1.44,2.04,2.85,3.17,4.2,1.13,1.35,2.31,2.64,3.55,3.88s2.54,2.41,3.9,3.53c1.36,1.1,2.77,2.17,4.22,3.15,1.2.8,2.42,1.56,3.69,2.26,7.98,4.5,17.2,7.07,27.04,7.07,24.92,0,45.96-16.55,52.66-39.2h39.1Z"/>
    <path class="cls-2" d="m150.78,74.4c-6.17,15.41-21.29,26.3-38.95,26.3-.61,0-1.22-.02-1.81-.06-.4,0-.78-.02-1.16-.06-.15,0-.32-.02-.48-.04-.48-.02-.94-.08-1.41-.13-1.26-.13-2.52-.34-3.74-.61-.53-.1-1.07-.23-1.58-.36-2.12-.51-4.16-1.2-6.13-2.03-.63-.27-1.26-.53-1.87-.84-.61-.28-1.2-.59-1.79-.91-.59-.32-1.18-.66-1.74-.99-.04-.02-.06-.04-.06-.04-.42-.27-.82-.51-1.22-.78-.27-.17-.53-.34-.8-.53-1.57-1.08-3.07-2.26-4.49-3.55-.46-.42-.92-.85-1.36-1.29-2.2-2.18-4.16-4.62-5.8-7.24-.29-.42-.53-.86-.78-1.27-.53-.89-1.03-1.8-1.47-2.74-.23-.46-.44-.93-.65-1.41-.21-.46-.42-.93-.59-1.41,0,0-.02,0-.02-.02-1.93-4.77-2.98-9.99-2.98-15.45,0-23.05,18.77-41.74,41.95-41.74,12.47,0,23.64,5.41,31.31,14-6.24,5.09-14.8,6.9-22.38,4.03-2.77-1.04-5.79-1.61-8.94-1.61-15.03,0-27,12.94-25.3,28.21,1.24,11.29,10.23,20.56,21.54,22.17,9.72,1.39,18.54-2.72,23.89-9.61h18.83Z"/>
  </g>
  <g>
    <path class="cls-1" d="m600.53,128.02v11.37c1.2-2.01,3.52-3.4,6.61-3.4,4.99,0,8.2,3.71,8.2,8.86v3.02c0,4.95-3.06,8.86-8.28,8.86-3.29,0-5.84-1.74-6.69-3.56v3.09h-2.79v-28.24h2.94Zm11.88,16.94c0-3.64-2.05-6.58-5.8-6.58-3.29,0-6.07,2.51-6.07,6.58v2.55c0,3.83,2.13,6.81,6.03,6.81,4.1,0,5.84-2.94,5.84-6.58v-2.78Z"/>
    <path class="cls-1" d="m623.13,162.98l2.51-6.73-7.39-19.81h2.9l6.03,16.83,5.8-16.83h2.9l-7.31,19.81-2.59,6.73h-2.86Z"/>
  </g>
  <path class="cls-3" d="m776.74,146.75c0-6.89,4.36-11.73,10.55-11.73s10.62,4.84,10.62,11.73-4.43,11.45-10.62,11.45-10.55-4.77-10.55-11.45Zm-6.47,0c0,10.16,7.08,17.32,17.02,17.32s17.09-7.16,17.09-17.32-7.08-17.59-17.09-17.59-17.02,7.3-17.02,17.59Zm-33.03-17.18l13.35,34.09h6.27l13.35-34.09h-6.74l-9.67,26.32h-.14l-9.67-26.32h-6.74Zm-25.94,15.95c.41-6.27,4.56-10.5,10.21-10.5,4.9,0,8.58,3.14,9.12,7.84h-11.3c-4.02,0-6.2.48-7.83,2.66h-.21Zm-6.47,1.02c0,10.16,7.15,17.52,17.02,17.52,6.67,0,12.53-3.41,15.05-8.8l-5.45-2.73c-1.91,3.55-5.58,5.66-9.6,5.66-4.84,0-9.19-3.68-9.19-7.23,0-1.84,1.23-2.66,3-2.66h21.58v-1.84c0-10.23-6.54-17.32-15.93-17.32s-16.48,7.3-16.48,17.39m-18.52,17.11h6.13v-20.93c0-4.5,2.79-7.7,6.67-7.7,1.63,0,3.34.55,4.15,1.29.61-1.64,1.57-3.27,3-4.91-1.63-1.36-4.43-2.25-7.15-2.25-7.49,0-12.8,5.59-12.8,13.57v20.93h0Zm-29.62-22.56v-16.64h10.08c3.4,0,5.65,1.98,5.65,4.98,0,3.41-2.93,6-8.92,7.98-4.09,1.29-5.92,2.39-6.61,3.68h-.21Zm0,16.7v-6.95c0-3.07,2.59-6.07,6.2-7.23,3.2-1.09,5.85-2.18,8.1-3.34,3,1.77,4.83,4.84,4.83,8.04,0,5.45-5.18,9.48-12.19,9.48h-6.94Zm-6.13,5.86h13.62c10.35,0,18.11-6.48,18.11-15.07,0-4.71-2.38-8.93-6.61-11.66,2.18-2.18,3.2-4.71,3.2-7.77,0-6.34-4.56-10.57-11.44-10.57h-16.89v45.07Z"/>
</svg>