<?xml version="1.0" encoding="UTF-8"?>
<svg id="Calque_1" data-name="Calque 1" xmlns="http://www.w3.org/2000/svg" viewBox="0 0 470.3 189.04">
  <defs>
    <style>
      .cls-1 {
        stroke: #000;
        stroke-miterlimit: 10;
        stroke-width: 1.5px;
      }

      .cls-2, .cls-3 {
        stroke-width: 0px;
      }

      .cls-3 {
        fill: #0b996e;
      }
    </style>
  </defs>
  <g>
    <path class="cls-2" d="M250.32,86.54l-88.44,78.23-27.75-24.39-27.27,24.39L17.92,86.54h49.49c1.38,4.69,3.26,9.19,5.56,13.42,1.09,1.95,2.25,3.85,3.48,5.7,1.26,1.83,2.59,3.61,4.01,5.32,1.43,1.71,2.93,3.34,4.5,4.91,1.57,1.56,3.22,3.06,4.93,4.47,1.72,1.4,3.51,2.74,5.34,3.99,1.52,1.01,3.07,1.97,4.67,2.86,10.11,5.7,21.78,8.95,34.23,8.95,31.55,0,58.19-20.95,66.68-49.63h49.51Z"/>
    <path class="cls-2" d="M183.45,86.54c-7.81,19.51-26.96,33.3-49.32,33.3-.77,0-1.55-.02-2.3-.07-.51,0-.99-.02-1.48-.07-.19,0-.41-.02-.6-.05-.6-.02-1.18-.1-1.79-.17-1.6-.17-3.19-.43-4.74-.77-.68-.12-1.35-.29-2.01-.46-2.68-.65-5.27-1.52-7.76-2.57-.8-.34-1.6-.67-2.37-1.06-.77-.36-1.52-.75-2.27-1.15-.75-.41-1.5-.84-2.2-1.25-.05-.02-.07-.05-.07-.05-.53-.34-1.04-.65-1.55-.99-.34-.22-.68-.43-1.02-.67-1.98-1.37-3.89-2.86-5.68-4.5-.58-.53-1.16-1.08-1.72-1.64-2.78-2.77-5.27-5.85-7.35-9.17-.36-.53-.68-1.08-.99-1.61-.68-1.13-1.31-2.29-1.86-3.46-.29-.58-.56-1.18-.82-1.78-.27-.58-.53-1.18-.75-1.78,0,0-.02,0-.02-.02-2.44-6.04-3.77-12.65-3.77-19.56,0-29.18,23.76-52.85,53.11-52.85,15.79,0,29.93,6.86,39.65,17.73-7.91,6.45-18.74,8.73-28.33,5.1-3.51-1.32-7.33-2.04-11.31-2.04-19.03,0-34.18,16.38-32.03,35.73,1.57,14.29,12.96,26.03,27.27,28.07,12.31,1.76,23.48-3.44,30.24-12.17h23.84Z"/>
  </g>
  <g>
    <path class="cls-1" d="M275.59,39.4v12.56c1.32-2.22,3.89-3.76,7.3-3.76,5.51,0,9.06,4.1,9.06,9.78v3.33c0,5.47-3.38,9.78-9.14,9.78-3.63,0-6.45-1.92-7.39-3.93v3.42h-3.08v-31.18h3.25ZM288.7,58.11c0-4.02-2.26-7.26-6.41-7.26-3.63,0-6.71,2.78-6.71,7.26v2.82c0,4.23,2.35,7.52,6.66,7.52,4.53,0,6.45-3.25,6.45-7.26v-3.08Z"/>
    <path class="cls-1" d="M300.54,78.01l2.78-7.43-8.16-21.87h3.2l6.66,18.58,6.41-18.58h3.2l-8.07,21.87-2.86,7.43h-3.16Z"/>
  </g>
  <path class="cls-3" d="M410.6,117.63c0-7.6,4.81-12.95,11.65-12.95s11.73,5.34,11.73,12.95-4.89,12.65-11.73,12.65-11.65-5.27-11.65-12.65ZM403.45,117.63c0,11.22,7.82,19.12,18.8,19.12s18.87-7.91,18.87-19.12-7.82-19.42-18.87-19.42-18.8,8.06-18.8,19.42ZM366.98,98.66l14.74,37.64h6.92l14.74-37.64h-7.44l-10.68,29.06h-.15l-10.68-29.06h-7.44ZM338.33,116.28c.45-6.93,5.04-11.59,11.28-11.59,5.41,0,9.47,3.46,10.08,8.66h-12.48c-4.44,0-6.84.53-8.65,2.94h-.23ZM331.19,117.41c0,11.22,7.9,19.35,18.8,19.35,7.37,0,13.83-3.76,16.62-9.71l-6.01-3.01c-2.1,3.92-6.17,6.25-10.6,6.25-5.34,0-10.15-4.07-10.15-7.98,0-2.03,1.35-2.94,3.31-2.94h23.83v-2.03c0-11.29-7.22-19.12-17.59-19.12s-18.2,8.06-18.2,19.2M310.74,136.3h6.77v-23.11c0-4.97,3.08-8.51,7.37-8.51,1.81,0,3.68.6,4.59,1.43.68-1.81,1.73-3.61,3.31-5.42-1.81-1.5-4.89-2.49-7.9-2.49-8.27,0-14.14,6.17-14.14,14.98v23.11h0ZM278.03,111.38v-18.37h11.13c3.76,0,6.24,2.18,6.24,5.5,0,3.76-3.23,6.62-9.85,8.81-4.51,1.43-6.54,2.63-7.29,4.07h-.23ZM278.03,129.83v-7.68c0-3.39,2.86-6.7,6.84-7.98,3.54-1.21,6.47-2.41,8.95-3.69,3.31,1.96,5.34,5.34,5.34,8.88,0,6.02-5.72,10.46-13.46,10.46h-7.67ZM271.26,136.3h15.04c11.43,0,20-7.15,20-16.64,0-5.2-2.63-9.86-7.29-12.87,2.41-2.41,3.54-5.2,3.54-8.58,0-7-5.04-11.67-12.63-11.67h-18.65v49.77Z"/>
</svg>